<svg width="682.753601" height="90.666664" viewBox="0 0 682.754 90.6667" fill="none" xmlns="http://www.w3.org/2000/svg" xmlns:xlink="http://www.w3.org/1999/xlink">
	<desc>
			Created with Pixso.
	</desc>
	<defs>
		<clipPath id="clip1_1">
			<rect id="nano(1)" width="90.666664" height="90.666664" fill="white" fill-opacity="0"/>
		</clipPath>
	</defs>
	<rect width="682.753601" height="90.666664" fill="none"/>
	<g clip-path="url(#clip1_1)">
		<path id="path" d="M62.31 39.46C61.26 40.51 62.57 44.08 65.07 47C67.7 50.06 77.33 50.27 77.33 47.27C77.33 43.81 71.11 38.66 66.94 38.66C64.83 38.66 62.75 39.02 62.31 39.46Z" fill="#003ECF" fill-opacity="1.000000" fill-rule="nonzero"/>
		<path id="path" d="M65.07 47C67.7 50.06 77.33 50.27 77.33 47.27C77.33 43.81 71.11 38.66 66.94 38.66C64.83 38.66 62.75 39.02 62.31 39.46C61.26 40.51 62.57 44.08 65.07 47Z" stroke="#003ECF" stroke-opacity="1.000000" stroke-width="1.333333"/>
		<path id="path" d="M56.44 24.76C52.23 28.97 53.75 31.2 60.83 31.2C64.34 31.2 66.39 30.31 68.27 27.99C70.74 24.93 70.76 24.69 68.51 23.05C64.82 20.36 60.19 21.01 56.44 24.76Z" fill="#003ECF" fill-opacity="1.000000" fill-rule="nonzero"/>
		<path id="path" d="M60.83 31.2C64.34 31.2 66.39 30.31 68.27 27.99C70.74 24.93 70.76 24.69 68.51 23.05C64.82 20.36 60.19 21.01 56.44 24.76C52.23 28.97 53.75 31.2 60.83 31.2Z" stroke="#003ECF" stroke-opacity="1.000000" stroke-width="1.333333"/>
		<path id="path" d="M21.87 22.02C20.07 29.18 26.7 37.4 30.29 32.48C32.4 29.6 32.44 27.33 30.46 23.57C27.41 17.78 23.13 17.01 21.87 22.02Z" fill="#003ECF" fill-opacity="1.000000" fill-rule="nonzero"/>
		<path id="path" d="M30.29 32.48C32.4 29.6 32.44 27.33 30.46 23.57C27.41 17.78 23.13 17.01 21.87 22.02C20.07 29.18 26.7 37.4 30.29 32.48Z" stroke="#003ECF" stroke-opacity="1.000000" stroke-width="1.333333"/>
		<path id="path" d="M21.25 59.79C16.79 63.4 18.6 66.66 25.08 66.66C32.3 66.66 37.95 60.21 32.55 58.14C28.7 56.66 24.33 57.3 21.25 59.79Z" fill="#003ECF" fill-opacity="1.000000" fill-rule="nonzero"/>
		<path id="path" d="M25.08 66.66C32.3 66.66 37.95 60.21 32.55 58.14C28.7 56.66 24.33 57.3 21.25 59.79C16.79 63.4 18.6 66.66 25.08 66.66Z" stroke="#003ECF" stroke-opacity="1.000000" stroke-width="1.333333"/>
		<path id="path" d="M45.13 62.94C39.75 64.75 36.4 75.47 40.77 76.92C41.56 77.18 43.84 76.12 45.84 74.55C48.82 72.2 49.4 70.8 49.06 66.72C48.68 61.99 48.5 61.81 45.13 62.94Z" fill="#003ECF" fill-opacity="1.000000" fill-rule="nonzero"/>
		<path id="path" d="M40.77 76.92C41.56 77.18 43.84 76.12 45.84 74.55C48.82 72.2 49.4 70.8 49.06 66.72C48.68 61.99 48.5 61.81 45.13 62.94C39.75 64.75 36.4 75.47 40.77 76.92Z" stroke="#003ECF" stroke-opacity="1.000000" stroke-width="1.333333"/>
		<path id="path" d="M12.88 39.55C9.51 42.92 15.48 49.33 22 49.33C27.67 49.33 28.16 46.71 23.39 41.94C20.29 38.84 14.83 37.6 12.88 39.55Z" fill="#003ECF" fill-opacity="1.000000" fill-rule="nonzero"/>
		<path id="path" d="M22 49.33C27.67 49.33 28.16 46.71 23.39 41.94C20.29 38.84 14.83 37.6 12.88 39.55C9.51 42.92 15.48 49.33 22 49.33Z" stroke="#003ECF" stroke-opacity="1.000000" stroke-width="1.333333"/>
		<path id="path" d="M41.36 15.59C38.2 19.62 38.2 25.76 41.37 26.36C44.93 27.03 49.33 21.65 49.33 16.61C49.33 12.94 48.8 12 46.76 12C45.34 12 42.92 13.61 41.36 15.59Z" fill="#003ECF" fill-opacity="1.000000" fill-rule="nonzero"/>
		<path id="path" d="M41.37 26.36C44.93 27.03 49.33 21.65 49.33 16.61C49.33 12.94 48.8 12 46.76 12C45.34 12 42.92 13.61 41.36 15.59C38.2 19.62 38.2 25.76 41.37 26.36Z" stroke="#003ECF" stroke-opacity="1.000000" stroke-width="1.333333"/>
		<path id="path" d="M58.92 54.94C56.1 57.76 57.05 64.6 60.73 68.06C63.6 70.76 64.33 70.95 65.38 69.29C67.68 65.65 66.8 59.26 63.59 56.24C61.2 54 60.15 53.71 58.92 54.94Z" fill="#003ECF" fill-opacity="1.000000" fill-rule="nonzero"/>
		<path id="path" d="M60.73 68.06C63.6 70.76 64.33 70.95 65.38 69.29C67.68 65.65 66.8 59.26 63.59 56.24C61.2 54 60.15 53.71 58.92 54.94C56.1 57.76 57.05 64.6 60.73 68.06Z" stroke="#003ECF" stroke-opacity="1.000000" stroke-width="1.333333"/>
		<path id="path" d="M72 59.06C72 62.46 74.26 65.33 76.93 65.33C79.11 65.33 79.2 59.74 77.06 57.6C74.49 55.02 72 55.75 72 59.06Z" fill="#0073FF" fill-opacity="1.000000" fill-rule="nonzero"/>
		<path id="path" d="M76.93 65.33C79.11 65.33 79.2 59.74 77.06 57.6C74.49 55.02 72 55.75 72 59.06C72 62.46 74.26 65.33 76.93 65.33Z" stroke="#0073FF" stroke-opacity="1.000000" stroke-width="1.333333"/>
		<path id="path" d="M73.56 31.82C72.14 32.73 72.22 33.36 73.99 35.14C78.09 39.23 84.84 36.89 81.28 32.6C79.49 30.45 76.25 30.12 73.56 31.82Z" fill="#0073FF" fill-opacity="1.000000" fill-rule="nonzero"/>
		<path id="path" d="M73.99 35.14C78.09 39.23 84.84 36.89 81.28 32.6C79.49 30.45 76.25 30.12 73.56 31.82C72.14 32.73 72.22 33.36 73.99 35.14Z" stroke="#0073FF" stroke-opacity="1.000000" stroke-width="1.333333"/>
		<path id="path" d="M9.33 26C9.33 29.18 14.66 33.86 16.36 32.16C18.53 30 15.34 24 12.02 24C10.52 24 9.33 24.88 9.33 26Z" fill="#0073FF" fill-opacity="1.000000" fill-rule="nonzero"/>
		<path id="path" d="M16.36 32.16C18.53 30 15.34 24 12.02 24C10.52 24 9.33 24.88 9.33 26C9.33 29.18 14.66 33.86 16.36 32.16Z" stroke="#0073FF" stroke-opacity="1.000000" stroke-width="1.333333"/>
		<path id="path" d="M58.2 11.77C55.3 14.98 55.4 17.33 58.46 17.33C61.49 17.33 65.91 12.68 64.71 10.75C63.39 8.61 60.67 9.04 58.2 11.77Z" fill="#0073FF" fill-opacity="1.000000" fill-rule="nonzero"/>
		<path id="path" d="M58.46 17.33C61.49 17.33 65.91 12.68 64.71 10.75C63.39 8.61 60.67 9.04 58.2 11.77C55.3 14.98 55.4 17.33 58.46 17.33Z" stroke="#0073FF" stroke-opacity="1.000000" stroke-width="1.333333"/>
		<path id="path" d="M31.79 8.58C30.23 12.01 31.01 16 33.24 16C35.36 16 37.55 10.81 36.65 7.94C35.52 4.4 33.58 4.65 31.79 8.58Z" fill="#0073FF" fill-opacity="1.000000" fill-rule="nonzero"/>
		<path id="path" d="M33.24 16C35.36 16 37.55 10.81 36.65 7.94C35.52 4.4 33.58 4.65 31.79 8.58C30.23 12.01 31.01 16 33.24 16Z" stroke="#0073FF" stroke-opacity="1.000000" stroke-width="1.333333"/>
		<path id="path" d="M53.6 73.6C52.72 74.48 52 76.92 52 79.03C52 84.32 56.48 83.55 57.1 78.16C57.62 73.62 55.86 71.33 53.6 73.6Z" fill="#0073FF" fill-opacity="1.000000" fill-rule="nonzero"/>
		<path id="path" d="M52 79.03C52 84.32 56.48 83.55 57.1 78.16C57.62 73.62 55.86 71.33 53.6 73.6C52.72 74.48 52 76.92 52 79.03Z" stroke="#0073FF" stroke-opacity="1.000000" stroke-width="1.333333"/>
		<path id="path" d="M24.71 75C22.69 77.88 22.75 78 26.14 78C28.32 78 30.43 76.85 31.66 75C33.55 72.15 33.48 72 30.23 72C28.2 72 25.96 73.21 24.71 75Z" fill="#0073FF" fill-opacity="1.000000" fill-rule="nonzero"/>
		<path id="path" d="M26.14 78C28.32 78 30.43 76.85 31.66 75C33.55 72.15 33.48 72 30.23 72C28.2 72 25.96 73.21 24.71 75C22.69 77.88 22.75 78 26.14 78Z" stroke="#0073FF" stroke-opacity="1.000000" stroke-width="1.333333"/>
		<path id="path" d="M6.23 52.87C4.58 54.52 8.31 57.33 12.16 57.33C16.32 57.33 17.52 54.2 13.89 52.8C11.11 51.74 7.33 51.77 6.23 52.87Z" fill="#0073FF" fill-opacity="1.000000" fill-rule="nonzero"/>
		<path id="path" d="M12.16 57.33C16.32 57.33 17.52 54.2 13.89 52.8C11.11 51.74 7.33 51.77 6.23 52.87C4.58 54.52 8.31 57.33 12.16 57.33Z" stroke="#0073FF" stroke-opacity="1.000000" stroke-width="1.333333"/>
		<path id="path" d="M82.6 49.21C84.4 52.58 87.03 52.9 86.41 49.68C86.17 48.4 84.87 47.15 83.54 46.89C81.46 46.49 81.32 46.82 82.6 49.21Z" fill="#00A0E9" fill-opacity="1.000000" fill-rule="nonzero"/>
		<path id="path" d="M86.41 49.68C86.17 48.4 84.87 47.15 83.54 46.89C81.46 46.49 81.32 46.82 82.6 49.21C84.4 52.58 87.03 52.9 86.41 49.68Z" stroke="#00A0E9" stroke-opacity="1.000000" stroke-width="1.333333"/>
		<path id="path" d="M2.6 39.88C4.4 43.25 7.03 43.57 6.41 40.34C6.17 39.07 4.87 37.82 3.54 37.56C1.46 37.16 1.32 37.49 2.6 39.88Z" fill="#00A0E9" fill-opacity="1.000000" fill-rule="nonzero"/>
		<path id="path" d="M6.41 40.34C6.17 39.07 4.87 37.82 3.54 37.56C1.46 37.16 1.32 37.49 2.6 39.88C4.4 43.25 7.03 43.57 6.41 40.34Z" stroke="#00A0E9" stroke-opacity="1.000000" stroke-width="1.333333"/>
		<path id="path" d="M17.86 11.2C17.37 12.47 17.63 14.17 18.44 14.97C19.51 16.04 20.15 15.81 20.8 14.13C21.28 12.86 21.02 11.16 20.22 10.35C19.15 9.28 18.51 9.51 17.86 11.2Z" fill="#00A0E9" fill-opacity="1.000000" fill-rule="nonzero"/>
		<path id="path" d="M18.44 14.97C19.51 16.04 20.15 15.81 20.8 14.13C21.28 12.86 21.02 11.16 20.22 10.35C19.15 9.28 18.51 9.51 17.86 11.2C17.37 12.47 17.63 14.17 18.44 14.97Z" stroke="#00A0E9" stroke-opacity="1.000000" stroke-width="1.333333"/>
		<path id="path" d="M9.33 69.33C9.33 70.06 10.83 70.66 12.66 70.66C14.5 70.66 16 70.06 16 69.33C16 68.6 14.5 68 12.66 68C10.83 68 9.33 68.6 9.33 69.33Z" fill="#00A0E9" fill-opacity="1.000000" fill-rule="nonzero"/>
		<path id="path" d="M12.66 70.66C14.5 70.66 16 70.06 16 69.33C16 68.6 14.5 68 12.66 68C10.83 68 9.33 68.6 9.33 69.33C9.33 70.06 10.83 70.66 12.66 70.66Z" stroke="#00A0E9" stroke-opacity="1.000000" stroke-width="1.333333"/>
		<path id="path" d="M73.62 18.87C73.95 19.86 75.29 20.87 76.59 21.12C78.11 21.42 78.75 20.94 78.37 19.79C78.04 18.8 76.7 17.79 75.4 17.53C73.88 17.24 73.24 17.72 73.62 18.87Z" fill="#00A0E9" fill-opacity="1.000000" fill-rule="nonzero"/>
		<path id="path" d="M76.59 21.12C78.11 21.42 78.75 20.94 78.37 19.79C78.04 18.8 76.7 17.79 75.4 17.53C73.88 17.24 73.24 17.72 73.62 18.87C73.95 19.86 75.29 20.87 76.59 21.12Z" stroke="#00A0E9" stroke-opacity="1.000000" stroke-width="1.333333"/>
		<path id="path" d="M47.97 3.36C47.04 4.48 46.65 5.76 47.11 6.22C48.08 7.19 52 4.2 52 2.5C52 0.66 49.82 1.13 47.97 3.36Z" fill="#00A0E9" fill-opacity="1.000000" fill-rule="nonzero"/>
		<path id="path" d="M47.11 6.22C48.08 7.19 52 4.2 52 2.5C52 0.66 49.82 1.13 47.97 3.36C47.04 4.48 46.65 5.76 47.11 6.22Z" stroke="#00A0E9" stroke-opacity="1.000000" stroke-width="1.333333"/>
		<path id="path" d="M38.22 83.55C36.72 85.05 37.23 86.66 39.19 86.66C40.21 86.66 41.39 85.76 41.81 84.66C42.58 82.66 39.93 81.84 38.22 83.55Z" fill="#00A0E9" fill-opacity="1.000000" fill-rule="nonzero"/>
		<path id="path" d="M39.19 86.66C40.21 86.66 41.39 85.76 41.81 84.66C42.58 82.66 39.93 81.84 38.22 83.55C36.72 85.05 37.23 86.66 39.19 86.66Z" stroke="#00A0E9" stroke-opacity="1.000000" stroke-width="1.333333"/>
		<path id="path" d="M68 76C68 77.46 68.6 78.66 69.33 78.66C70.06 78.66 70.66 77.46 70.66 76C70.66 74.53 70.06 73.33 69.33 73.33C68.6 73.33 68 74.53 68 76Z" fill="#00A0E9" fill-opacity="1.000000" fill-rule="nonzero"/>
		<path id="path" d="M69.33 78.66C70.06 78.66 70.66 77.46 70.66 76C70.66 74.53 70.06 73.33 69.33 73.33C68.6 73.33 68 74.53 68 76C68 77.46 68.6 78.66 69.33 78.66Z" stroke="#00A0E9" stroke-opacity="1.000000" stroke-width="1.333333"/>
	</g>
	<path id="矢量 1" d="M348.82 52.36C348.82 49.22 349.35 46.46 350.4 44.09C351.46 41.71 352.92 39.87 354.8 38.57Q356.01 37.73 357.35 37.25L357.36 37.25Q359.14 36.62 361.16 36.62C363.27 36.62 365.05 37.02 366.52 37.83C367.99 38.62 369.06 39.6 369.71 40.76C369.67 36.13 369.6 32.95 369.5 31.21C369.4 29.48 369.26 27.97 369.09 26.69C369.05 26.48 368.95 25.72 368.79 24.4C368.77 24.23 368.76 24.06 368.76 23.9C368.76 23.29 368.88 22.76 369.12 22.33C369.43 21.76 369.96 21.48 370.71 21.48C371.12 21.48 371.45 21.52 371.69 21.61L375.42 22.72Q375.85 22.86 376.21 23.1Q376.52 23.32 376.78 23.63C377.12 24.02 377.29 24.44 377.29 24.88C377.29 24.92 377.28 24.97 377.28 25.02C377.2 26.92 377.16 29.5 377.16 32.77L377.16 44.37L377.1 53.72C377.09 53.96 377.09 54.19 377.09 54.42C377.09 56.74 377.28 58.43 377.66 59.49C378.07 60.65 378.69 61.23 379.52 61.23C379.93 61.23 380.47 61.06 381.12 60.73C381.2 60.69 381.29 60.69 381.37 60.73Q381.46 60.77 381.49 60.84Q381.5 60.87 381.5 60.91C381.41 62.23 380.89 63.49 379.94 64.69C378.99 65.89 377.84 66.5 376.48 66.5C374.7 66.5 373.27 66.07 372.19 65.22Q371.46 64.65 370.98 63.91Q370.39 63.02 370.15 61.91C369.4 63.43 368.24 64.62 366.67 65.47C365.1 66.31 363.21 66.74 360.98 66.74Q356.49 66.74 353.59 64.6Q352.72 63.95 351.99 63.12C349.88 60.7 348.82 57.11 348.82 52.36ZM409.46 24.14C409.96 24.14 410.42 24.36 410.86 24.79C411.29 25.23 411.59 25.74 411.75 26.32L412.49 29.55C412.54 29.75 412.57 30 412.57 30.29C412.57 30.94 412.36 31.4 411.95 31.65C411.53 31.9 411.01 31.98 410.39 31.89Q408.16 31.53 403.44 31.53L396.93 31.53C396.02 31.53 395.36 31.55 394.95 31.59L394.95 41.56L407.16 41.32C407.7 41.32 408.18 41.54 408.62 41.97C409.05 42.41 409.33 42.89 409.46 43.43L410.21 46.65L410.33 47.47C410.33 48.12 410.11 48.57 409.68 48.8C409.24 49.02 408.72 49.09 408.1 49.01C406.65 48.8 404.52 48.69 401.71 48.69L394.95 48.69L394.95 59.43L409.46 59.12C409.96 59.12 410.42 59.34 410.86 59.77C411.29 60.21 411.59 60.71 411.75 61.29L412.49 64.51C412.54 64.71 412.57 64.96 412.57 65.25C412.57 65.92 412.36 66.36 411.95 66.59C411.53 66.82 411.01 66.89 410.39 66.8C408.9 66.6 406.73 66.5 403.88 66.5L388.62 66.5C387.8 66.5 387.16 66.39 386.7 66.19C386.35 66.03 386.17 65.68 386.17 65.14C386.17 64.99 386.18 64.82 386.21 64.63C386.21 64.51 386.33 63.96 386.58 62.97C386.83 61.97 386.96 60.17 386.96 57.56L386.96 57.2C386.96 46.28 386.9 39.18 386.79 35.9C386.69 32.61 386.52 30.31 386.27 28.99C386.1 28.2 385.98 27.33 385.9 26.38Q385.87 26.09 385.87 25.82Q385.87 24.45 386.55 23.89Q387 23.52 387.76 23.52Q388.01 23.52 388.76 23.66L392.4 24.52L392.54 24.52L409.46 24.14ZM565.14 64.75C565.14 65.25 564.95 65.66 564.58 66C564.21 66.33 563.77 66.5 563.28 66.5L558.63 66.5C558.14 66.5 557.7 66.33 557.33 66C556.96 65.66 556.77 65.25 556.77 64.75Q556.77 64.27 556.86 63.53C556.92 63.02 556.95 62.56 556.95 62.15L556.95 56.82L546.11 56.82C545.41 56.82 544.73 56.86 544.08 56.94C543.45 57.02 543.03 57.09 542.83 57.14C542.45 57.22 541.94 57.3 541.27 57.38C540.86 57.42 540.38 57.06 539.85 56.29C539.31 55.53 538.85 54.58 538.45 53.45Q537.86 51.74 537.86 50.31C537.86 50.1 537.92 49.95 538.04 49.84C538.17 49.74 538.36 49.64 538.64 49.54Q539.04 49.39 539.23 49.13C540.71 47.1 542.38 44.92 544.25 42.56Q544.75 41.88 546.88 39.07C548.31 37.18 549.63 35.38 550.85 33.66Q552.68 31.09 554.17 28.67C554.29 28.51 554.57 28.06 555.03 27.32C555.49 26.57 555.78 25.91 555.91 25.32L555.91 25.38Q556.05 24.3 556.66 23.84Q557.09 23.52 557.77 23.52C557.93 23.52 558.26 23.57 558.75 23.66L563.16 24.7C563.69 24.83 564.15 25.13 564.52 25.58C564.89 26.03 565.08 26.53 565.08 27.06C565.08 28.31 565.06 29.23 565.02 29.85L564.96 32.71L564.96 49.63L567.12 49.63C567.79 49.63 568.52 49.55 569.32 49.39C570.12 49.22 570.71 49.09 571.09 49.01C571.22 49.01 571.28 49.14 571.28 49.39C571.07 51.17 570.67 52.89 570.09 54.57C569.51 56.23 568.86 57.06 568.12 57.06C567.75 57.06 567.36 57.02 566.97 56.94C566.58 56.86 566.19 56.82 565.82 56.82L564.96 56.82L564.96 62.15C564.96 62.56 564.99 63.02 565.05 63.53Q565.14 64.27 565.14 64.75ZM604.83 64.75C604.83 65.25 604.64 65.66 604.27 66C603.89 66.33 603.46 66.5 602.97 66.5L598.3 66.5C597.81 66.5 597.38 66.33 597 66C596.64 65.66 596.46 65.25 596.46 64.75Q596.46 64.27 596.55 63.53C596.61 63.02 596.64 62.56 596.64 62.15L596.64 58.18C596.64 46.98 596.57 39.68 596.44 36.27C596.32 32.86 596.14 30.43 595.9 28.99L595.58 26.38Q595.55 26.09 595.55 25.82Q595.55 24.45 596.23 23.89Q596.68 23.52 597.44 23.52Q597.7 23.52 598.44 23.66L602.91 24.7C603.68 24.91 604.24 25.41 604.57 26.2C606.64 24.83 609.33 24.08 612.64 23.96C615.24 23.96 617.56 24.59 619.6 25.85C621.65 27.11 623.24 28.77 624.37 30.82C625.51 32.87 626.08 35.01 626.08 37.24C626.08 39.63 625.61 41.89 624.66 44.02C623.71 46.15 622.18 47.88 620.07 49.22C617.96 50.57 615.28 51.24 612.02 51.24C610.48 51.24 609.15 51.11 608.01 50.84C606.88 50.57 605.75 50.17 604.63 49.63L604.63 62.15C604.63 62.56 604.66 63.02 604.72 63.53C604.79 64.02 604.83 64.43 604.83 64.75ZM131.7 50.13C132.82 50.79 133.72 51.69 134.39 52.83C135.08 53.96 135.42 55.12 135.42 56.32C135.42 57.36 135.11 58.36 134.48 59.31C132.59 62.03 130.24 63.96 127.45 65.1C124.66 66.23 121.31 66.8 117.38 66.8Q112.54 66.8 108.56 64.96Q107.64 64.53 106.77 64.01Q105.06 62.99 103.62 61.66L103.62 61.66Q101.16 59.39 99.52 56.23Q96.92 51.24 96.92 44.85Q96.92 39.49 99.01 35.15Q99.29 34.57 99.61 34.01Q101.05 31.46 103.07 29.51L103.07 29.51Q104.84 27.81 107.04 26.56C110.21 24.79 113.8 23.9 117.8 23.9C120.66 23.9 123.28 24.41 125.68 25.43C128.08 26.44 130.19 27.87 132 29.73C132.79 30.52 133.42 31.3 133.89 32.09C134.37 32.88 134.88 33.87 135.42 35.06C135.54 35.35 135.6 35.68 135.6 36.06C135.6 36.96 134.94 37.56 133.62 37.86C132.46 38.06 131.67 38.22 131.26 38.34L128.6 38.84C128.14 38.92 127.71 38.88 127.29 38.72C126.88 38.56 126.55 38.29 126.31 37.92Q126.17 37.6 125.99 37.24C125.87 36.98 125.75 36.74 125.63 36.49C125.34 35.67 125.04 35.07 124.75 34.69C124.18 33.82 123.5 33.18 122.71 32.77C121.96 32.36 121.22 32.06 120.47 31.88C119.73 31.69 118.87 31.59 117.88 31.59C115.73 31.59 113.73 32.16 111.89 33.3Q111.43 33.58 111 33.9Q108.86 35.53 107.51 38.19Q105.91 41.38 105.91 45.61Q105.91 51.65 108.9 55.1L108.9 55.1Q109.1 55.33 109.31 55.55Q110.36 56.62 111.6 57.36Q114.42 59.05 118.24 59.05C119.98 59.05 121.76 58.66 123.6 57.88C125.45 57.1 126.87 56.06 127.85 54.78C128.43 53.99 129.02 53.1 129.61 52.12C130.22 51.12 130.6 50.35 130.78 49.81C130.86 49.69 130.94 49.67 131.02 49.75L131.7 50.13ZM509.16 66.37C507.38 66.37 505.9 66.41 504.7 66.5C504.15 66.54 503.71 66.38 503.38 66.03C503.06 65.67 502.89 65.23 502.89 64.69L502.77 60.49C502.77 59.99 502.94 59.56 503.29 59.18C503.64 58.81 504.07 58.58 504.57 58.5Q506.62 57.82 509.84 54.92C511.99 52.97 514.18 50.71 516.41 48.15C517.16 47.28 518.14 46.08 519.35 44.55C520.57 43.01 521.41 41.84 521.86 41.02C522.61 39.57 522.98 38.16 522.98 36.8C522.98 35.31 522.55 34.08 521.68 33.09C520.81 32.09 519.61 31.59 518.08 31.59C515.73 31.59 513.91 32.03 512.63 32.92C511.35 33.81 510.14 35 509.02 36.49C508.45 37.23 508 37.76 507.66 38.07C507.34 38.38 506.95 38.54 506.5 38.54C505.63 38.54 504.92 37.83 504.38 36.4C503.84 34.97 503.58 33.47 503.58 31.89C503.58 30.78 503.72 30 504.01 29.55C504.92 27.97 506.45 26.75 508.6 25.88C510.75 25.02 513.07 24.41 515.55 24.08C516.12 24 516.95 23.96 518.02 23.96Q522.49 23.96 525.88 25.88L525.88 25.88Q526.63 26.3 527.32 26.82Q528.34 27.57 529.13 28.52Q531.32 31.14 531.73 35.25C531.77 35.5 531.79 35.86 531.79 36.36Q531.79 37.61 531.54 38.81Q531.29 39.99 530.79 41.11Q529.81 43.37 528.25 45.42C527.22 46.79 525.77 48.54 523.9 50.69C523.54 51.15 523.09 51.68 522.54 52.3C522.01 52.91 521.41 53.61 520.76 54.4C519.72 55.6 518.68 57.07 517.65 58.81L520.76 58.87C521.62 58.87 522.88 58.83 524.52 58.75L531.23 58.25Q531.38 58.23 531.53 58.25Q532.23 58.33 532.86 58.97C533.39 59.49 533.73 60.05 533.89 60.67L534.7 64.01C534.78 64.43 534.82 64.72 534.82 64.89C534.82 65.63 534.58 66.13 534.11 66.4C533.63 66.67 533.05 66.74 532.35 66.62C531.39 66.5 530.3 66.41 529.08 66.37C527.87 66.33 526.56 66.31 525.15 66.31L521.68 66.31L509.16 66.37ZM604.63 42.62Q605.93 43.55 607.36 44.08C608.31 44.43 609.44 44.61 610.72 44.61C612.99 44.61 614.79 44.01 616.14 42.82C617.48 41.62 618.15 39.92 618.15 37.72C618.15 35.78 617.51 34.15 616.23 32.83C614.94 31.51 613.17 30.85 610.9 30.85C610.61 30.85 610.09 30.89 609.35 30.97C608.31 31.13 607.42 31.38 606.68 31.71L606.64 31.73Q605.56 32.22 604.63 33.07L604.63 42.62ZM556.95 49.69L556.77 35.56L546.79 49.69L556.95 49.69ZM218.44 39.02C218.42 38.84 218.41 38.67 218.41 38.5C218.41 37.91 218.52 37.39 218.74 36.96C219.03 36.4 219.55 36.12 220.3 36.12C220.59 36.12 220.94 36.18 221.36 36.3L225.07 37.36C225.61 37.56 226.05 37.86 226.4 38.25C226.75 38.64 226.93 39.09 226.93 39.58L226.87 41.02C227.49 39.82 228.56 38.78 230.06 37.92C231.57 37.05 233.43 36.62 235.62 36.62Q237.73 36.62 239.58 37.32Q240.81 37.79 241.93 38.57C243.79 39.87 245.25 41.71 246.3 44.09Q247.89 47.65 247.89 52.36Q247.89 59.49 244.76 63.12C242.67 65.53 239.68 66.74 235.8 66.74C233.69 66.74 231.85 66.35 230.27 65.57C228.71 64.78 227.55 63.68 226.81 62.27L226.81 76.85C226.81 77.51 226.87 78.34 226.99 79.33Q226.99 79.41 226.99 79.49Q226.99 79.82 226.88 80.1Q226.76 80.43 226.49 80.69C226.13 81.07 225.67 81.25 225.13 81.25L221.16 81.25C220.67 81.25 220.23 81.08 219.86 80.72C219.49 80.37 219.3 79.95 219.3 79.45C219.3 79.2 219.33 78.82 219.39 78.3C219.46 77.79 219.5 77.3 219.5 76.85L219.5 72.94C219.5 61.21 219.43 53.5 219.3 49.83C219.18 46.15 219 43.37 218.75 41.5L218.44 39.02ZM197.04 64.75C197.04 65.25 196.85 65.66 196.48 66C196.12 66.33 195.69 66.5 195.19 66.5L191.35 66.5Q190.96 66.5 190.62 66.36Q190.3 66.24 190.03 66C189.67 65.66 189.49 65.25 189.49 64.75C189.49 64.47 189.53 64.04 189.61 63.45L189.67 62.15L189.67 58.18C189.67 53.97 189.57 50.91 189.38 49.01C189.2 47.12 188.87 45.83 188.4 45.17C187.92 44.5 187.15 44.17 186.07 44.17Q184.98 44.17 184.18 44.65Q182.07 45.92 181.98 50.56L181.98 62.15C181.98 62.65 182.01 63.15 182.07 63.68Q182.16 64.45 182.16 64.81C182.16 65.32 181.98 65.73 181.6 66.04C181.24 66.34 180.8 66.5 180.3 66.5L176.53 66.5C176.03 66.5 175.58 66.33 175.18 66C174.8 65.66 174.61 65.25 174.61 64.75C174.61 64.43 174.65 64.02 174.73 63.53C174.81 63.02 174.85 62.56 174.85 62.15L174.85 56.14Q174.73 49.51 174.53 46.82Q174.35 44.11 173.99 41.82C173.82 40.66 173.69 39.75 173.61 39.1C173.59 38.91 173.58 38.74 173.58 38.57C173.58 37.97 173.69 37.46 173.91 37.02C174.2 36.46 174.72 36.18 175.47 36.18C175.76 36.18 176.12 36.24 176.53 36.36L180.24 37.42C180.69 37.58 181.09 37.83 181.42 38.16C181.75 38.49 181.96 38.87 182.04 39.28C183.12 38.33 184.01 37.68 184.7 37.33C185.41 36.97 186.38 36.8 187.63 36.8C188.45 36.8 189.13 36.84 189.67 36.92C192.07 37.21 194.01 38.53 195.5 40.88L195.56 40.76C196.76 39.36 197.88 38.34 198.93 37.71C199.99 37.06 201.28 36.74 202.81 36.74C203.14 36.74 203.72 36.78 204.55 36.86C205.99 37.02 207.26 37.59 208.35 38.57C209.45 39.54 210.29 40.67 210.86 41.97C211.45 43.28 211.74 44.47 211.74 45.55L211.74 54.46Q211.74 58.18 212.01 59.55C212.2 60.46 212.63 60.91 213.3 60.91C213.71 60.91 214.31 60.75 215.08 60.43Q215.18 60.37 215.25 60.39Q215.28 60.4 215.31 60.43Q215.35 60.45 215.37 60.48Q215.4 60.53 215.4 60.61C215.11 62.84 214.53 64.38 213.66 65.22C212.79 66.07 211.45 66.5 209.63 66.5C208.19 66.5 206.98 65.91 206 64.74Q205.37 63.97 205.02 63.09Q204.55 61.94 204.55 60.61L204.55 53.36C204.55 51 204.45 49.17 204.26 47.89Q203.99 45.97 203.22 45.08Q203.07 44.9 202.89 44.76L202.89 44.76Q202.15 44.17 200.95 44.17C199.66 44.17 198.67 44.75 197.96 45.91C197.27 47.07 196.9 48.76 196.86 51L196.86 62.15C196.86 62.44 196.9 62.88 196.98 63.45L197.04 64.75ZM286.45 56.14Q286.45 49.57 286.22 46.85C286.08 45.02 285.89 43.37 285.65 41.88C285.48 41.1 285.33 40.17 285.21 39.1C285.19 38.91 285.18 38.74 285.18 38.57C285.18 37.97 285.29 37.46 285.51 37.02C285.8 36.46 286.32 36.18 287.07 36.18C287.36 36.18 287.72 36.24 288.13 36.36L291.84 37.42Q292.33 37.6 292.72 37.91L292.72 37.91Q292.98 38.11 293.2 38.37Q293.6 38.83 293.68 39.34Q293.71 39.48 293.71 39.63Q293.71 39.7 293.7 39.78C293.62 41.64 293.58 44.2 293.58 47.47L293.58 51.3C293.58 53.29 293.7 54.82 293.94 55.9C294.2 56.97 294.66 57.75 295.34 58.25C296.02 58.74 297.05 58.99 298.42 58.99C299.79 58.99 300.91 58.38 301.8 57.17C302.69 55.95 303.15 54.24 303.19 52.05L303.19 51.49C303.19 48.76 303.13 46.77 303 45.52C302.87 44.25 302.69 43.06 302.45 41.94Q302.39 41.56 302.22 40.76C302.12 40.23 302.05 39.67 302.01 39.1C301.99 38.91 301.98 38.74 301.98 38.57C301.98 37.97 302.09 37.46 302.31 37.02C302.61 36.46 303.13 36.18 303.87 36.18C304.17 36.18 304.52 36.24 304.93 36.36L308.64 37.42C309.23 37.62 309.69 37.94 310.03 38.37C310.35 38.76 310.51 39.18 310.51 39.62C310.51 39.68 310.51 39.73 310.5 39.78Q310.32 43.93 310.32 47.47L310.26 53.72C310.3 56.45 310.51 58.39 310.88 59.53C311.25 60.66 311.85 61.23 312.68 61.23C313.1 61.23 313.63 61.06 314.29 60.73C314.37 60.69 314.45 60.69 314.53 60.73Q314.62 60.77 314.65 60.84Q314.67 60.87 314.67 60.91C314.58 62.23 314.07 63.49 313.11 64.69C312.16 65.89 311 66.5 309.64 66.5C308.15 66.5 306.91 66.2 305.92 65.6C304.93 65 304.21 64.18 303.75 63.15C301.6 65.38 298.79 66.5 295.32 66.5C294.91 66.5 294.33 66.45 293.58 66.37C292.14 66.2 290.88 65.62 289.79 64.63C288.73 63.64 287.9 62.5 287.31 61.2C286.74 59.9 286.45 58.7 286.45 57.62L286.45 56.14ZM342.81 54.46C342.81 56.98 342.91 58.69 343.11 59.58C343.32 60.47 343.76 60.91 344.43 60.91C344.79 60.91 345.37 60.75 346.15 60.43C346.24 60.37 346.32 60.37 346.4 60.43Q346.49 60.47 346.52 60.53Q346.53 60.57 346.53 60.61C346.24 62.84 345.66 64.38 344.79 65.22C343.92 66.07 342.58 66.5 340.77 66.5C339.27 66.5 338.05 65.91 337.1 64.74C336.15 63.56 335.68 62.18 335.68 60.61L335.68 53.36C335.68 50.87 335.57 49.02 335.36 47.8C335.16 46.58 334.72 45.67 334.03 45.08C333.35 44.47 332.29 44.17 330.84 44.17C329.47 44.17 328.35 44.78 327.46 46C326.57 47.22 326.11 48.93 326.07 51.12L326.07 62.15C326.07 62.65 326.1 63.15 326.16 63.68Q326.25 64.45 326.25 64.81C326.25 65.32 326.06 65.73 325.69 66.04C325.33 66.34 324.89 66.5 324.39 66.5L320.62 66.5C320.11 66.5 319.67 66.33 319.27 66C318.89 65.66 318.7 65.25 318.7 64.75C318.7 64.43 318.74 64.02 318.82 63.53C318.9 63.02 318.94 62.56 318.94 62.15L318.94 56.14Q318.82 49.51 318.62 46.82Q318.44 44.11 318.07 41.82C317.9 40.66 317.78 39.75 317.7 39.1C317.68 38.91 317.67 38.74 317.67 38.57C317.67 37.97 317.78 37.46 318 37.02C318.29 36.46 318.81 36.18 319.56 36.18C319.85 36.18 320.21 36.24 320.62 36.36L324.33 37.42C324.78 37.58 325.2 37.85 325.57 38.22C325.94 38.59 326.15 38.99 326.19 39.4C328.3 37.62 330.82 36.74 333.76 36.74C334.13 36.74 334.77 36.78 335.68 36.86C337.12 37.02 338.38 37.59 339.45 38.57C340.53 39.54 341.36 40.67 341.93 41.97C342.52 43.28 342.81 44.47 342.81 45.55L342.81 54.46ZM420 51.18C420 48.53 419.95 46.6 419.84 45.38C419.74 44.16 419.58 42.97 419.38 41.82C419.21 41.16 419.06 40.25 418.94 39.1Q418.92 38.82 418.92 38.57C418.92 37.97 419.03 37.46 419.25 37.02C419.54 36.46 420.06 36.18 420.81 36.18C421.1 36.18 421.45 36.24 421.86 36.36L425.57 37.42Q426.06 37.6 426.46 37.91Q426.72 38.11 426.94 38.37Q427.33 38.83 427.42 39.34Q427.44 39.48 427.44 39.63Q427.44 39.7 427.44 39.78C427.27 43.49 427.19 46.06 427.19 47.47L427.19 51.99C427.19 54.35 427.83 56.24 429.12 57.67C430.4 59.09 432.07 59.8 434.14 59.8Q435.52 59.8 436.63 59.26Q437.81 58.68 438.68 57.47C439.82 55.92 440.39 53.97 440.39 51.62L440.39 51.56C440.39 48.99 440.34 47.08 440.24 45.82C440.14 44.56 439.98 43.41 439.77 42.38C439.61 41.51 439.47 40.56 439.35 39.52Q439.32 39.25 439.32 38.99C439.32 38.39 439.43 37.88 439.65 37.45C439.94 36.89 440.46 36.62 441.21 36.62C441.62 36.62 441.95 36.66 442.19 36.74L445.92 37.86C446.49 38.02 446.97 38.32 447.34 38.75Q447.68 39.15 447.79 39.6Q447.85 39.82 447.85 40.05Q447.85 40.12 447.84 40.2L447.72 42.56C447.68 43.39 447.63 44.26 447.58 45.17C447.54 46.08 447.52 46.98 447.52 47.89L447.52 65.44C447.52 68.91 446.87 71.82 445.57 74.17C444.27 76.53 442.49 78.3 440.24 79.48C437.99 80.66 435.44 81.25 432.58 81.25C430.35 81.25 428.22 80.97 426.19 80.41C424.18 79.85 422.61 78.93 421.49 77.65C421.07 77.2 420.87 76.46 420.87 75.43C420.87 74.52 421.01 73.51 421.29 72.41C421.58 71.32 421.94 70.36 422.35 69.54C422.44 69.33 422.55 69.26 422.67 69.34C423.66 70.58 425.06 71.66 426.88 72.56C428.7 73.48 430.5 73.94 432.28 73.94Q434.23 73.94 435.82 73.17L435.82 73.17Q436.19 72.99 436.55 72.76C437.79 71.97 438.74 70.95 439.39 69.69C440.06 68.43 440.39 67.08 440.39 65.63L440.39 62.59C438.95 65.35 436.2 66.74 432.16 66.74Q427.68 66.74 424.77 64.6Q423.9 63.95 423.17 63.12C421.06 60.7 420 57.11 420 52.36L420 51.18ZM648.48 45.47C648.34 45.6 648.22 45.6 648.1 45.47C647.43 44.6 646.25 44.17 644.56 44.17C643.19 44.17 642.07 44.78 641.18 46C640.29 47.22 639.83 48.93 639.79 51.12L639.79 62.15C639.79 62.65 639.82 63.15 639.88 63.68Q639.97 64.45 639.97 64.81C639.97 65.32 639.78 65.73 639.41 66.04C639.05 66.34 638.61 66.5 638.11 66.5L634.34 66.5C633.83 66.5 633.39 66.33 632.99 66C632.61 65.66 632.42 65.25 632.42 64.75C632.42 64.43 632.46 64.02 632.54 63.53C632.62 63.02 632.66 62.56 632.66 62.15L632.66 56.14Q632.54 49.51 632.34 46.82Q632.16 44.11 631.8 41.82C631.62 40.66 631.5 39.75 631.42 39.1C631.4 38.91 631.39 38.74 631.39 38.57C631.39 37.97 631.5 37.46 631.72 37.02C632.01 36.46 632.53 36.18 633.28 36.18C633.57 36.18 633.93 36.24 634.34 36.36L638.05 37.42C638.5 37.58 638.92 37.85 639.29 38.22C639.66 38.59 639.87 38.99 639.91 39.4C642.02 37.62 644.54 36.74 647.48 36.74C647.85 36.74 648.49 36.78 649.4 36.86C649.85 36.9 650.29 37 650.7 37.18Q650.95 37.24 651.11 37.39Q651.43 37.69 651.43 38.34Q651.43 38.59 651.38 38.9C650.85 41.54 649.88 43.73 648.48 45.47ZM140.32 51.43Q140.32 47.47 141.91 44.31Q142.04 44.06 142.18 43.81C143.42 41.57 145.16 39.83 147.39 38.57C149.62 37.31 152.14 36.68 154.95 36.68Q158.49 36.68 161.32 38.1Q161.8 38.34 162.26 38.63C164.37 39.93 166.01 41.76 167.18 44.12Q168.96 47.65 168.96 52.24C168.96 55 168.33 57.49 167.09 59.71C165.86 61.92 164.13 63.66 161.89 64.92C159.66 66.17 157.14 66.8 154.33 66.8C151.6 66.8 149.17 66.14 147.04 64.81Q145.94 64.13 145.01 63.27Q143.25 61.63 142.09 59.34Q142.06 59.29 142.04 59.24Q140.32 55.76 140.32 51.43ZM251.92 51.43Q251.92 47.47 253.51 44.31L253.51 44.3Q253.64 44.05 253.78 43.81C255.02 41.57 256.76 39.83 258.99 38.57C261.22 37.31 263.74 36.68 266.55 36.68Q270.09 36.68 272.92 38.1Q273.4 38.34 273.86 38.63C275.97 39.93 277.61 41.76 278.78 44.12Q280.56 47.65 280.56 52.24C280.56 55 279.93 57.49 278.69 59.71C277.46 61.92 275.73 63.66 273.49 64.92C271.26 66.17 268.74 66.8 265.93 66.8C263.2 66.8 260.77 66.14 258.64 64.81Q257.54 64.13 256.61 63.27Q254.85 61.63 253.69 59.34Q253.66 59.29 253.64 59.24Q251.92 55.76 251.92 51.43ZM654.11 51.43Q654.11 47.47 655.7 44.31L655.71 44.3Q655.84 44.05 655.97 43.81C657.21 41.57 658.95 39.83 661.18 38.57C663.41 37.31 665.93 36.68 668.75 36.68Q672.29 36.68 675.11 38.1L675.12 38.1Q675.6 38.35 676.06 38.63C678.17 39.93 679.81 41.76 680.98 44.12Q682.75 47.65 682.75 52.24C682.75 55 682.13 57.49 680.89 59.71C679.66 61.92 677.92 63.66 675.68 64.92C673.45 66.17 670.93 66.8 668.13 66.8C665.39 66.8 662.96 66.14 660.83 64.81Q659.74 64.13 658.81 63.27Q657.04 61.63 655.88 59.34Q655.86 59.29 655.83 59.24Q654.11 55.76 654.11 51.43ZM477.36 54.96C478.05 55.5 478.62 56.22 479.05 57.14C479.49 58.05 479.7 58.96 479.7 59.87C479.7 60.85 479.46 61.66 478.96 62.27C477.72 63.89 476.22 65.06 474.47 65.78C472.71 66.51 470.68 66.87 468.37 66.87C467.54 66.87 466.9 66.85 466.44 66.8Q463.18 66.65 460.56 65.27Q459.99 64.96 459.45 64.6C457.45 63.26 455.9 61.47 454.8 59.24Q453.17 55.9 453.17 51.68Q453.17 47.16 455.15 43.82Q455.18 43.77 455.21 43.71C456.57 41.45 458.46 39.73 460.86 38.54C463.26 37.34 465.94 36.74 468.91 36.74Q473.39 36.74 476.08 38.93Q477.01 39.69 477.72 40.7C478.55 41.9 478.96 43.33 478.96 44.99C478.96 47.04 478.16 48.89 476.57 50.53Q474.19 52.98 470.21 53.98Q467.68 54.66 464.26 54.66C462.53 54.66 461.21 54.51 460.3 54.22C460.67 56.25 461.54 57.79 462.9 58.85C464.26 59.9 466 60.43 468.11 60.43Q469.87 60.43 471.37 59.81Q472.73 59.25 473.88 58.18C474.41 57.69 474.99 57.1 475.6 56.4C476.23 55.69 476.63 55.15 476.8 54.78C476.88 54.66 476.96 54.64 477.04 54.72L477.36 54.96ZM155.38 42.81C154.15 42.68 152.95 43.02 151.79 43.81Q150.05 44.99 148.93 47.2C148.19 48.66 147.82 50.26 147.82 51.99C147.82 53.73 148.15 55.25 148.81 56.55C149.47 57.85 150.33 58.87 151.38 59.59C152.44 60.31 153.53 60.67 154.64 60.67C155.58 60.67 156.59 60.27 157.66 59.49C158.74 58.7 159.64 57.59 160.37 56.17C161.1 54.75 161.46 53.17 161.46 51.43Q161.46 48.15 159.94 45.89Q159.82 45.72 159.69 45.55C158.51 43.97 157.07 43.06 155.38 42.81ZM669.17 42.81Q668.73 42.76 668.3 42.8Q666.91 42.9 665.58 43.81Q663.84 44.99 662.72 47.2C661.99 48.66 661.62 50.26 661.62 51.99C661.62 53.73 661.95 55.25 662.6 56.55C663.27 57.85 664.13 58.87 665.18 59.59C666.23 60.31 667.32 60.67 668.43 60.67C669.38 60.67 670.39 60.27 671.46 59.49C672.54 58.7 673.44 57.59 674.17 56.17C674.89 54.75 675.26 53.17 675.26 51.43Q675.26 48.15 673.73 45.89L673.73 45.89Q673.61 45.71 673.49 45.55C672.3 43.97 670.87 43.06 669.17 42.81ZM266.98 42.81Q266.54 42.76 266.11 42.8Q264.72 42.9 263.39 43.81Q261.65 44.99 260.53 47.2C259.79 48.66 259.42 50.26 259.42 51.99C259.42 53.73 259.75 55.25 260.41 56.55C261.07 57.85 261.93 58.87 262.98 59.59C264.04 60.31 265.13 60.67 266.24 60.67C267.18 60.67 268.19 60.27 269.26 59.49C270.34 58.7 271.25 57.59 271.97 56.17C272.7 54.75 273.06 53.17 273.06 51.43Q273.06 48.15 271.54 45.89L271.54 45.89Q271.42 45.72 271.29 45.55C270.11 43.97 268.67 43.06 266.98 42.81ZM460.68 48.95C461.62 49.45 462.97 49.69 464.7 49.69C466.6 49.69 468.36 49.39 469.97 48.77C471.58 48.14 472.47 47.38 472.63 46.47C472.66 46.34 472.67 46.22 472.67 46.09Q472.67 45.58 472.44 45.02C472.24 44.5 471.91 44.1 471.45 43.81C470.96 43.43 470.53 43.2 470.15 43.12C469.79 43.04 469.21 43 468.43 43Q467.05 43 465.81 43.42Q464.65 43.8 463.61 44.55C462.19 45.58 461.21 47.04 460.68 48.95ZM233.38 43.43Q231.37 43.43 229.94 44.33Q229.2 44.79 228.61 45.49C227.45 46.85 226.87 48.7 226.87 51.06C226.87 53.54 227.52 55.62 228.82 57.29C230.12 58.97 231.77 59.8 233.75 59.8C235.86 59.8 237.52 59.06 238.73 57.58C239.95 56.09 240.57 54.08 240.57 51.56Q240.57 48.11 238.89 45.97Q238.76 45.8 238.61 45.64C237.31 44.16 235.57 43.43 233.38 43.43ZM363.34 43.43C361.19 43.43 359.46 44.16 358.15 45.64Q358 45.8 357.87 45.97Q356.19 48.11 356.19 51.56C356.19 54.08 356.8 56.09 358.03 57.58Q358.71 58.41 359.58 58.93Q361.04 59.8 363.02 59.8C364.88 59.8 366.45 59.04 367.73 57.52Q368.03 57.16 368.28 56.78L368.28 56.78Q369.69 54.69 369.91 51.8L369.85 50C369.68 47.94 369.02 46.33 367.88 45.17C366.75 44.01 365.24 43.43 363.34 43.43Z" fill="#FFFFFF" fill-opacity="1.000000" fill-rule="evenodd"/>
</svg>
